<svg width="512" height="512" viewBox="0 0 512 512" fill="none" xmlns="http://www.w3.org/2000/svg">
<g clip-path="url(#clip0_4462_1694)">
<rect width="512" height="512" rx="59" fill="url(#paint0_linear_4462_1694)"/>
<path d="M143.27 33.0887C143.611 21.6989 157.399 16.2285 165.457 24.286L267.341 126.17C273.619 125.398 280.013 125 286.5 125C372.38 125 442 194.62 442 280.5C442 366.38 372.38 436 286.5 436C200.619 436 131 366.38 131 280.5C131 279.071 131.02 277.647 131.058 276.227L22.9791 168.148C14.9296 160.099 20.3805 146.324 31.7584 145.963L127.778 142.911C134.643 142.693 140.153 137.172 140.359 130.307L143.27 33.0887Z" fill="url(#paint1_linear_4462_1694)"/>
<circle cx="264.889" cy="276.939" r="19.7353" transform="rotate(-12.3453 264.889 276.939)" fill="white"/>
<circle cx="366.545" cy="235.138" r="19.7353" transform="rotate(-12.3453 366.545 235.138)" fill="white"/>
<path d="M303.588 325.336C295.229 329.077 291.336 339.122 297.327 346.049C303.408 353.082 311.182 358.58 320.027 361.955C334.092 367.322 349.714 366.882 363.456 360.732C377.197 354.581 387.932 343.224 393.3 329.158C396.675 320.314 397.754 310.854 396.561 301.633C395.386 292.551 385.301 288.762 376.942 292.504C371.927 294.749 369.869 300.678 370.372 306.149C370.791 310.706 370.175 315.343 368.512 319.699C365.653 327.191 359.936 333.24 352.617 336.516C345.298 339.792 336.977 340.026 329.486 337.167C325.13 335.505 321.261 332.875 318.142 329.527C314.397 325.506 308.604 323.091 303.588 325.336Z" fill="white"/>
</g>
<defs>
<linearGradient id="paint0_linear_4462_1694" x1="0" y1="0" x2="512" y2="512" gradientUnits="userSpaceOnUse">
<stop stop-color="#434343"/>
<stop offset="1" stop-color="#110404"/>
</linearGradient>
<linearGradient id="paint1_linear_4462_1694" x1="371.499" y1="418.5" x2="66.4993" y2="63.001" gradientUnits="userSpaceOnUse">
<stop stop-color="#FF6246"/>
<stop offset="0.379808" stop-color="#FF2D2D"/>
<stop offset="0.841346" stop-color="#C6004F"/>
</linearGradient>
<clipPath id="clip0_4462_1694">
<rect width="512" height="512" rx="20" fill="white"/>
</clipPath>
</defs>
</svg>
