<svg width="512" height="512" viewBox="0 0 512 512" fill="none" xmlns="http://www.w3.org/2000/svg">
<g clip-path="url(#clip0_4462_1694)">
<rect width="512" height="512" rx="59" fill="url(#paint0_linear_4462_1694)"/>
<path fill-rule="evenodd" clip-rule="evenodd" d="M160.122 53.6336C160.463 42.2438 174.251 36.7734 182.308 44.8309L284.193 146.715C290.471 145.943 296.865 145.545 303.351 145.545C389.231 145.545 458.851 215.165 458.851 301.045C458.851 386.925 389.231 456.545 303.351 456.545C217.471 456.545 147.851 386.925 147.851 301.045C147.851 299.616 147.871 298.192 147.91 296.772L39.8307 188.693C31.7812 180.644 37.232 166.869 48.61 166.508L144.63 163.456C151.494 163.238 157.005 157.717 157.211 150.851L160.122 53.6336Z" fill="url(#paint1_linear_4462_1694)"/>
<circle cx="281.741" cy="297.484" r="19.7353" transform="rotate(-12.3453 281.741 297.484)" fill="white"/>
<circle cx="383.397" cy="255.683" r="19.7353" transform="rotate(-12.3453 383.397 255.683)" fill="white"/>
<path d="M320.44 345.881C312.081 349.622 308.188 359.667 314.178 366.594C320.26 373.627 328.034 379.124 336.878 382.5C350.944 387.867 366.566 387.427 380.307 381.277C394.049 375.126 404.784 363.769 410.152 349.703C413.527 340.859 414.606 331.399 413.412 322.178C412.237 313.096 402.153 309.307 393.794 313.049C388.778 315.293 386.72 321.223 387.224 326.694C387.643 331.251 387.026 335.888 385.364 340.244C382.505 347.736 376.787 353.785 369.468 357.061C362.149 360.336 353.829 360.571 346.337 357.712C341.981 356.049 338.113 353.42 334.993 350.072C331.248 346.051 325.455 343.636 320.44 345.881Z" fill="white"/>
</g>
<defs>
<linearGradient id="paint0_linear_4462_1694" x1="0" y1="0" x2="512" y2="512" gradientUnits="userSpaceOnUse">
<stop stop-color="#434343"/>
<stop offset="1" stop-color="#050101"/>
</linearGradient>
<linearGradient id="paint1_linear_4462_1694" x1="388.351" y1="439.045" x2="83.3508" y2="83.5459" gradientUnits="userSpaceOnUse">
<stop stop-color="#FF6246"/>
<stop offset="0.379808" stop-color="#FF2D2D"/>
<stop offset="0.841346" stop-color="#C6004F"/>
</linearGradient>
<clipPath id="clip0_4462_1694">
<rect width="512" height="512" rx="20" fill="white"/>
</clipPath>
</defs>
</svg>
