<svg width="512" height="512" viewBox="0 0 512 512" fill="none" xmlns="http://www.w3.org/2000/svg">
<g clip-path="url(#clip0_4462_1694)">
<rect width="512" height="512" rx="59" fill="url(#paint0_linear_4462_1694)"/>
<path d="M173.123 59.6343C173.464 48.2444 187.252 42.7733 195.309 50.8305L276.704 132.226C278.86 132.137 281.028 132.09 283.206 132.09C369.086 132.091 438.705 201.71 438.706 287.59C438.706 373.47 369.086 443.09 283.206 443.09C197.325 443.09 127.706 373.471 127.706 287.59C127.706 281.814 128.023 276.111 128.636 270.499L52.8306 194.694C44.7812 186.644 50.2322 172.869 61.6099 172.507L157.63 169.457C164.495 169.238 170.006 163.717 170.211 156.852L173.123 59.6343Z" fill="url(#paint1_linear_4462_1694)"/>
<circle cx="261.592" cy="284.029" r="19.7353" transform="rotate(-12.3453 261.592 284.029)" fill="white"/>
<circle cx="363.248" cy="242.228" r="19.7353" transform="rotate(-12.3453 363.248 242.228)" fill="white"/>
<path d="M300.291 332.426C291.932 336.168 288.039 346.212 294.03 353.139C300.111 360.172 307.885 365.67 316.73 369.045C330.795 374.413 346.417 373.973 360.159 367.822C373.9 361.672 384.636 350.314 390.003 336.249C393.378 327.404 394.457 317.944 393.264 308.723C392.089 299.641 382.004 295.853 373.645 299.594C368.63 301.839 366.572 307.768 367.075 313.24C367.494 317.797 366.878 322.433 365.215 326.79C362.357 334.281 356.639 340.33 349.32 343.606C342.001 346.882 333.681 347.116 326.189 344.257C321.833 342.595 317.964 339.966 314.845 336.617C311.1 332.597 305.307 330.182 300.291 332.426Z" fill="white"/>
</g>
<defs>
<linearGradient id="paint0_linear_4462_1694" x1="0" y1="0" x2="512" y2="512" gradientUnits="userSpaceOnUse">
<stop stop-color="#434343"/>
<stop offset="1" stop-color="#050101"/>
</linearGradient>
<linearGradient id="paint1_linear_4462_1694" x1="368.203" y1="425.591" x2="63.2024" y2="70.0913" gradientUnits="userSpaceOnUse">
<stop stop-color="#FF6246"/>
<stop offset="0.379808" stop-color="#FF2D2D"/>
<stop offset="0.841346" stop-color="#C6004F"/>
</linearGradient>
<clipPath id="clip0_4462_1694">
<rect width="512" height="512" rx="20" fill="white"/>
</clipPath>
</defs>
</svg>
